<mxfile host="app.diagrams.net" modified="2024-06-06T17:55:29.930Z" agent="Mozilla/5.0 (Windows NT 10.0; Win64; x64; rv:126.0) Gecko/20100101 Firefox/126.0" etag="byvDg9C5lZlV3sTg4-uQ" version="24.5.1" type="github">
  <diagram name="Page-1" id="2YBvvXClWsGukQMizWep">
    <mxGraphModel dx="2868" dy="2664" grid="1" gridSize="10" guides="1" tooltips="1" connect="1" arrows="1" fold="1" page="1" pageScale="1" pageWidth="850" pageHeight="1100" math="0" shadow="0">
      <root>
        <mxCell id="0" />
        <mxCell id="1" parent="0" />
        <mxCell id="aM9ryv3xv72pqoxQDRHE-1" value="Клиент" style="shape=umlLifeline;perimeter=lifelinePerimeter;whiteSpace=wrap;html=1;container=0;dropTarget=0;collapsible=0;recursiveResize=0;outlineConnect=0;portConstraint=eastwest;newEdgeStyle={&quot;edgeStyle&quot;:&quot;elbowEdgeStyle&quot;,&quot;elbow&quot;:&quot;vertical&quot;,&quot;curved&quot;:0,&quot;rounded&quot;:0};" parent="1" vertex="1">
          <mxGeometry x="40" y="30" width="100" height="870" as="geometry" />
        </mxCell>
        <mxCell id="aM9ryv3xv72pqoxQDRHE-2" value="" style="html=1;points=[];perimeter=orthogonalPerimeter;outlineConnect=0;targetShapes=umlLifeline;portConstraint=eastwest;newEdgeStyle={&quot;edgeStyle&quot;:&quot;elbowEdgeStyle&quot;,&quot;elbow&quot;:&quot;vertical&quot;,&quot;curved&quot;:0,&quot;rounded&quot;:0};" parent="aM9ryv3xv72pqoxQDRHE-1" vertex="1">
          <mxGeometry x="45" y="70" width="10" height="100" as="geometry" />
        </mxCell>
        <mxCell id="aM9ryv3xv72pqoxQDRHE-5" value="База данных" style="shape=umlLifeline;perimeter=lifelinePerimeter;whiteSpace=wrap;html=1;container=0;dropTarget=0;collapsible=0;recursiveResize=0;outlineConnect=0;portConstraint=eastwest;newEdgeStyle={&quot;edgeStyle&quot;:&quot;elbowEdgeStyle&quot;,&quot;elbow&quot;:&quot;vertical&quot;,&quot;curved&quot;:0,&quot;rounded&quot;:0};" parent="1" vertex="1">
          <mxGeometry x="220" y="30" width="100" height="870" as="geometry" />
        </mxCell>
        <mxCell id="aM9ryv3xv72pqoxQDRHE-6" value="" style="html=1;points=[];perimeter=orthogonalPerimeter;outlineConnect=0;targetShapes=umlLifeline;portConstraint=eastwest;newEdgeStyle={&quot;edgeStyle&quot;:&quot;elbowEdgeStyle&quot;,&quot;elbow&quot;:&quot;vertical&quot;,&quot;curved&quot;:0,&quot;rounded&quot;:0};" parent="aM9ryv3xv72pqoxQDRHE-5" vertex="1">
          <mxGeometry x="45" y="80" width="10" height="90" as="geometry" />
        </mxCell>
        <mxCell id="aM9ryv3xv72pqoxQDRHE-7" value="Регистрация" style="html=1;verticalAlign=bottom;endArrow=block;edgeStyle=elbowEdgeStyle;elbow=vertical;curved=0;rounded=0;" parent="1" source="aM9ryv3xv72pqoxQDRHE-2" target="aM9ryv3xv72pqoxQDRHE-6" edge="1">
          <mxGeometry relative="1" as="geometry">
            <mxPoint x="195" y="130" as="sourcePoint" />
            <Array as="points">
              <mxPoint x="180" y="120" />
            </Array>
          </mxGeometry>
        </mxCell>
        <mxCell id="fGEbPbqWwMYZEwWUZNYe-1" value="&lt;font style=&quot;font-size: 8px;&quot;&gt;Сообщение об успешной регистрации&lt;/font&gt;" style="html=1;verticalAlign=bottom;endArrow=open;dashed=1;endSize=8;edgeStyle=elbowEdgeStyle;elbow=vertical;curved=0;rounded=0;" parent="1" edge="1">
          <mxGeometry relative="1" as="geometry">
            <mxPoint x="95" y="140" as="targetPoint" />
            <Array as="points">
              <mxPoint x="180" y="140" />
            </Array>
            <mxPoint x="265" y="140" as="sourcePoint" />
            <mxPoint as="offset" />
          </mxGeometry>
        </mxCell>
        <mxCell id="fGEbPbqWwMYZEwWUZNYe-2" value="Авторизация" style="html=1;verticalAlign=bottom;endArrow=block;edgeStyle=elbowEdgeStyle;elbow=vertical;curved=0;rounded=0;" parent="1" source="aM9ryv3xv72pqoxQDRHE-2" target="aM9ryv3xv72pqoxQDRHE-6" edge="1">
          <mxGeometry x="0.0028" relative="1" as="geometry">
            <mxPoint x="130" y="170" as="sourcePoint" />
            <Array as="points">
              <mxPoint x="175" y="170" />
            </Array>
            <mxPoint x="260" y="170" as="targetPoint" />
            <mxPoint as="offset" />
          </mxGeometry>
        </mxCell>
        <mxCell id="fGEbPbqWwMYZEwWUZNYe-3" value="Допуск в меню" style="html=1;verticalAlign=bottom;endArrow=open;dashed=1;endSize=8;edgeStyle=elbowEdgeStyle;elbow=vertical;curved=0;rounded=0;" parent="1" source="aM9ryv3xv72pqoxQDRHE-6" target="aM9ryv3xv72pqoxQDRHE-2" edge="1">
          <mxGeometry relative="1" as="geometry">
            <mxPoint x="90" y="190" as="targetPoint" />
            <Array as="points">
              <mxPoint x="185" y="190" />
            </Array>
            <mxPoint x="260" y="190" as="sourcePoint" />
          </mxGeometry>
        </mxCell>
        <mxCell id="fGEbPbqWwMYZEwWUZNYe-5" value="Окно с ресторанами и их меню" style="shape=umlLifeline;perimeter=lifelinePerimeter;whiteSpace=wrap;html=1;container=0;dropTarget=0;collapsible=0;recursiveResize=0;outlineConnect=0;portConstraint=eastwest;newEdgeStyle={&quot;edgeStyle&quot;:&quot;elbowEdgeStyle&quot;,&quot;elbow&quot;:&quot;vertical&quot;,&quot;curved&quot;:0,&quot;rounded&quot;:0};" parent="1" vertex="1">
          <mxGeometry x="350" y="30" width="100" height="870" as="geometry" />
        </mxCell>
        <mxCell id="fGEbPbqWwMYZEwWUZNYe-6" value="" style="html=1;points=[];perimeter=orthogonalPerimeter;outlineConnect=0;targetShapes=umlLifeline;portConstraint=eastwest;newEdgeStyle={&quot;edgeStyle&quot;:&quot;elbowEdgeStyle&quot;,&quot;elbow&quot;:&quot;vertical&quot;,&quot;curved&quot;:0,&quot;rounded&quot;:0};" parent="fGEbPbqWwMYZEwWUZNYe-5" vertex="1">
          <mxGeometry x="45" y="190" width="10" height="130" as="geometry" />
        </mxCell>
        <mxCell id="fGEbPbqWwMYZEwWUZNYe-9" value="" style="rounded=0;whiteSpace=wrap;html=1;" parent="1" vertex="1">
          <mxGeometry x="85" y="220" width="10" height="130" as="geometry" />
        </mxCell>
        <mxCell id="fGEbPbqWwMYZEwWUZNYe-11" value="Запрос ресторана и его блюд" style="html=1;verticalAlign=bottom;endArrow=block;edgeStyle=elbowEdgeStyle;elbow=vertical;curved=0;rounded=0;" parent="1" target="fGEbPbqWwMYZEwWUZNYe-6" edge="1">
          <mxGeometry x="0.0028" relative="1" as="geometry">
            <mxPoint x="95" y="240" as="sourcePoint" />
            <Array as="points">
              <mxPoint x="175" y="240" />
            </Array>
            <mxPoint x="265" y="240" as="targetPoint" />
            <mxPoint as="offset" />
          </mxGeometry>
        </mxCell>
        <mxCell id="fGEbPbqWwMYZEwWUZNYe-13" value="" style="rounded=0;whiteSpace=wrap;html=1;" parent="1" vertex="1">
          <mxGeometry x="265" y="250" width="10" height="40" as="geometry" />
        </mxCell>
        <mxCell id="fGEbPbqWwMYZEwWUZNYe-14" value="&lt;font style=&quot;font-size: 5px;&quot;&gt;запрос данных о ресторане и блюдах&lt;/font&gt;" style="html=1;verticalAlign=bottom;endArrow=block;edgeStyle=elbowEdgeStyle;elbow=vertical;curved=0;rounded=0;entryX=1;entryY=0.25;entryDx=0;entryDy=0;" parent="1" source="fGEbPbqWwMYZEwWUZNYe-6" target="fGEbPbqWwMYZEwWUZNYe-13" edge="1">
          <mxGeometry x="0.0028" relative="1" as="geometry">
            <mxPoint x="290" y="280" as="sourcePoint" />
            <Array as="points">
              <mxPoint x="290" y="260" />
            </Array>
            <mxPoint x="405" y="280" as="targetPoint" />
            <mxPoint as="offset" />
          </mxGeometry>
        </mxCell>
        <mxCell id="fGEbPbqWwMYZEwWUZNYe-15" value="&lt;font style=&quot;font-size: 5px;&quot;&gt;возврат данных о ресторане и блюдах&lt;/font&gt;" style="html=1;verticalAlign=bottom;endArrow=open;dashed=1;endSize=8;edgeStyle=elbowEdgeStyle;elbow=vertical;curved=0;rounded=0;" parent="1" target="fGEbPbqWwMYZEwWUZNYe-6" edge="1">
          <mxGeometry relative="1" as="geometry">
            <mxPoint x="390" y="280" as="targetPoint" />
            <Array as="points">
              <mxPoint x="355" y="280" />
            </Array>
            <mxPoint x="275" y="280" as="sourcePoint" />
          </mxGeometry>
        </mxCell>
        <mxCell id="fGEbPbqWwMYZEwWUZNYe-19" value="отображение меню ресторана" style="html=1;verticalAlign=bottom;endArrow=open;dashed=1;endSize=8;edgeStyle=elbowEdgeStyle;elbow=vertical;curved=0;rounded=0;" parent="1" source="fGEbPbqWwMYZEwWUZNYe-6" target="fGEbPbqWwMYZEwWUZNYe-9" edge="1">
          <mxGeometry relative="1" as="geometry">
            <mxPoint x="120" y="310" as="targetPoint" />
            <Array as="points">
              <mxPoint x="180" y="310" />
            </Array>
            <mxPoint x="100" y="380" as="sourcePoint" />
          </mxGeometry>
        </mxCell>
        <mxCell id="fGEbPbqWwMYZEwWUZNYe-20" value="выбор блюд" style="html=1;verticalAlign=bottom;endArrow=block;edgeStyle=elbowEdgeStyle;elbow=vertical;curved=0;rounded=0;" parent="1" target="fGEbPbqWwMYZEwWUZNYe-6" edge="1">
          <mxGeometry x="0.0028" relative="1" as="geometry">
            <mxPoint x="95" y="334.5" as="sourcePoint" />
            <Array as="points">
              <mxPoint x="175" y="334.5" />
            </Array>
            <mxPoint x="265" y="334.5" as="targetPoint" />
            <mxPoint as="offset" />
          </mxGeometry>
        </mxCell>
        <mxCell id="fGEbPbqWwMYZEwWUZNYe-21" value="Система оформления заказа" style="shape=umlLifeline;perimeter=lifelinePerimeter;whiteSpace=wrap;html=1;container=0;dropTarget=0;collapsible=0;recursiveResize=0;outlineConnect=0;portConstraint=eastwest;newEdgeStyle={&quot;edgeStyle&quot;:&quot;elbowEdgeStyle&quot;,&quot;elbow&quot;:&quot;vertical&quot;,&quot;curved&quot;:0,&quot;rounded&quot;:0};" parent="1" vertex="1">
          <mxGeometry x="500" y="30" width="100" height="870" as="geometry" />
        </mxCell>
        <mxCell id="fGEbPbqWwMYZEwWUZNYe-22" value="" style="html=1;points=[];perimeter=orthogonalPerimeter;outlineConnect=0;targetShapes=umlLifeline;portConstraint=eastwest;newEdgeStyle={&quot;edgeStyle&quot;:&quot;elbowEdgeStyle&quot;,&quot;elbow&quot;:&quot;vertical&quot;,&quot;curved&quot;:0,&quot;rounded&quot;:0};" parent="fGEbPbqWwMYZEwWUZNYe-21" vertex="1">
          <mxGeometry x="45" y="290" width="10" height="140" as="geometry" />
        </mxCell>
        <mxCell id="fGEbPbqWwMYZEwWUZNYe-24" value="&lt;font style=&quot;font-size: 7px;&quot;&gt;отправка данных о выбранных блюдах&lt;/font&gt;" style="html=1;verticalAlign=bottom;endArrow=block;edgeStyle=elbowEdgeStyle;elbow=vertical;curved=0;rounded=0;" parent="1" source="fGEbPbqWwMYZEwWUZNYe-6" target="fGEbPbqWwMYZEwWUZNYe-22" edge="1">
          <mxGeometry x="0.0028" relative="1" as="geometry">
            <mxPoint x="410" y="334.58" as="sourcePoint" />
            <Array as="points">
              <mxPoint x="490" y="334.58" />
            </Array>
            <mxPoint x="580" y="334.58" as="targetPoint" />
            <mxPoint as="offset" />
          </mxGeometry>
        </mxCell>
        <mxCell id="fGEbPbqWwMYZEwWUZNYe-25" value="" style="rounded=0;whiteSpace=wrap;html=1;" parent="1" vertex="1">
          <mxGeometry x="85" y="390" width="10" height="40" as="geometry" />
        </mxCell>
        <mxCell id="fGEbPbqWwMYZEwWUZNYe-26" value="запрос адреса и способа оплаты" style="html=1;verticalAlign=bottom;endArrow=block;edgeStyle=elbowEdgeStyle;elbow=vertical;curved=0;rounded=0;entryX=1;entryY=0.25;entryDx=0;entryDy=0;" parent="1" target="fGEbPbqWwMYZEwWUZNYe-25" edge="1">
          <mxGeometry x="0.0028" relative="1" as="geometry">
            <mxPoint x="545" y="400" as="sourcePoint" />
            <Array as="points">
              <mxPoint x="219.99999999999955" y="400" />
            </Array>
            <mxPoint x="129.99999999999955" y="400" as="targetPoint" />
            <mxPoint as="offset" />
          </mxGeometry>
        </mxCell>
        <mxCell id="fGEbPbqWwMYZEwWUZNYe-27" value="ввод адреса и способа оплаты" style="html=1;verticalAlign=bottom;endArrow=open;dashed=1;endSize=8;edgeStyle=elbowEdgeStyle;elbow=vertical;curved=0;rounded=0;" parent="1" target="fGEbPbqWwMYZEwWUZNYe-22" edge="1">
          <mxGeometry relative="1" as="geometry">
            <mxPoint x="260" y="420" as="targetPoint" />
            <Array as="points">
              <mxPoint x="175" y="420" />
            </Array>
            <mxPoint x="95" y="420" as="sourcePoint" />
          </mxGeometry>
        </mxCell>
        <mxCell id="fGEbPbqWwMYZEwWUZNYe-28" value="&lt;font style=&quot;font-size: 8px;&quot;&gt;Система распределения и обработки заказов&lt;/font&gt;" style="shape=umlLifeline;perimeter=lifelinePerimeter;whiteSpace=wrap;html=1;container=0;dropTarget=0;collapsible=0;recursiveResize=0;outlineConnect=0;portConstraint=eastwest;newEdgeStyle={&quot;edgeStyle&quot;:&quot;elbowEdgeStyle&quot;,&quot;elbow&quot;:&quot;vertical&quot;,&quot;curved&quot;:0,&quot;rounded&quot;:0};" parent="1" vertex="1">
          <mxGeometry x="640" y="30" width="100" height="870" as="geometry" />
        </mxCell>
        <mxCell id="fGEbPbqWwMYZEwWUZNYe-29" value="" style="html=1;points=[];perimeter=orthogonalPerimeter;outlineConnect=0;targetShapes=umlLifeline;portConstraint=eastwest;newEdgeStyle={&quot;edgeStyle&quot;:&quot;elbowEdgeStyle&quot;,&quot;elbow&quot;:&quot;vertical&quot;,&quot;curved&quot;:0,&quot;rounded&quot;:0};" parent="fGEbPbqWwMYZEwWUZNYe-28" vertex="1">
          <mxGeometry x="45" y="410" width="10" height="100" as="geometry" />
        </mxCell>
        <mxCell id="fGEbPbqWwMYZEwWUZNYe-49" value="" style="html=1;points=[];perimeter=orthogonalPerimeter;outlineConnect=0;targetShapes=umlLifeline;portConstraint=eastwest;newEdgeStyle={&quot;edgeStyle&quot;:&quot;elbowEdgeStyle&quot;,&quot;elbow&quot;:&quot;vertical&quot;,&quot;curved&quot;:0,&quot;rounded&quot;:0};" parent="fGEbPbqWwMYZEwWUZNYe-28" vertex="1">
          <mxGeometry x="45" y="520" width="10" height="70" as="geometry" />
        </mxCell>
        <mxCell id="fGEbPbqWwMYZEwWUZNYe-67" value="&lt;span style=&quot;color: rgba(0, 0, 0, 0); font-family: monospace; font-size: 0px; text-align: start;&quot;&gt;%3CmxGraphModel%3E%3Croot%3E%3CmxCell%20id%3D%220%22%2F%3E%3CmxCell%20id%3D%221%22%20parent%3D%220%22%2F%3E%3CmxCell%20id%3D%222%22%20value%3D%22%26lt%3Bfont%20style%3D%26quot%3Bfont-size%3A%209px%3B%26quot%3B%26gt%3B%D0%B2%D0%BE%D0%B7%D0%B2%D1%80%D0%B0%D1%82%20%D1%80%D0%B5%D0%BA%D0%B2%D0%B8%D0%B7%D0%B8%D1%82%D0%BE%D0%B2%20%D0%B4%D0%BB%D1%8F%20%D0%BE%D0%BF%D0%BB%D0%B0%D1%82%D1%8B%26lt%3B%2Ffont%26gt%3B%22%20style%3D%22html%3D1%3BverticalAlign%3Dbottom%3BendArrow%3Dopen%3Bdashed%3D1%3BendSize%3D8%3BedgeStyle%3DelbowEdgeStyle%3Belbow%3Dvertical%3Bcurved%3D0%3Brounded%3D0%3B%22%20edge%3D%221%22%20parent%3D%221%22%3E%3CmxGeometry%20relative%3D%221%22%20as%3D%22geometry%22%3E%3CmxPoint%20x%3D%22685%22%20y%3D%22730%22%20as%3D%22targetPoint%22%2F%3E%3CArray%20as%3D%22points%22%3E%3CmxPoint%20x%3D%22355%22%20y%3D%22729.8%22%2F%3E%3C%2FArray%3E%3CmxPoint%20x%3D%22275%22%20y%3D%22729.8%22%20as%3D%22sourcePoint%22%2F%3E%3C%2FmxGeometry%3E%3C%2FmxCell%3E%3C%2Froot%3E%3C%2FmxGraphModel%3E&lt;/span&gt;" style="html=1;points=[];perimeter=orthogonalPerimeter;outlineConnect=0;targetShapes=umlLifeline;portConstraint=eastwest;newEdgeStyle={&quot;edgeStyle&quot;:&quot;elbowEdgeStyle&quot;,&quot;elbow&quot;:&quot;vertical&quot;,&quot;curved&quot;:0,&quot;rounded&quot;:0};" parent="fGEbPbqWwMYZEwWUZNYe-28" vertex="1">
          <mxGeometry x="45" y="660" width="10" height="70" as="geometry" />
        </mxCell>
        <mxCell id="fGEbPbqWwMYZEwWUZNYe-76" value="&lt;span style=&quot;color: rgba(0, 0, 0, 0); font-family: monospace; font-size: 0px; text-align: start;&quot;&gt;%3CmxGraphModel%3E%3Croot%3E%3CmxCell%20id%3D%220%22%2F%3E%3CmxCell%20id%3D%221%22%20parent%3D%220%22%2F%3E%3CmxCell%20id%3D%222%22%20value%3D%22%26lt%3Bfont%20style%3D%26quot%3Bfont-size%3A%209px%3B%26quot%3B%26gt%3B%D0%B2%D0%BE%D0%B7%D0%B2%D1%80%D0%B0%D1%82%20%D1%80%D0%B5%D0%BA%D0%B2%D0%B8%D0%B7%D0%B8%D1%82%D0%BE%D0%B2%20%D0%B4%D0%BB%D1%8F%20%D0%BE%D0%BF%D0%BB%D0%B0%D1%82%D1%8B%26lt%3B%2Ffont%26gt%3B%22%20style%3D%22html%3D1%3BverticalAlign%3Dbottom%3BendArrow%3Dopen%3Bdashed%3D1%3BendSize%3D8%3BedgeStyle%3DelbowEdgeStyle%3Belbow%3Dvertical%3Bcurved%3D0%3Brounded%3D0%3B%22%20edge%3D%221%22%20parent%3D%221%22%3E%3CmxGeometry%20relative%3D%221%22%20as%3D%22geometry%22%3E%3CmxPoint%20x%3D%22685%22%20y%3D%22730%22%20as%3D%22targetPoint%22%2F%3E%3CArray%20as%3D%22points%22%3E%3CmxPoint%20x%3D%22355%22%20y%3D%22729.8%22%2F%3E%3C%2FArray%3E%3CmxPoint%20x%3D%22275%22%20y%3D%22729.8%22%20as%3D%22sourcePoint%22%2F%3E%3C%2FmxGeometry%3E%3C%2FmxCell%3E%3C%2Froot%3E%3C%2FmxGraphModel%3E&lt;/span&gt;" style="html=1;points=[];perimeter=orthogonalPerimeter;outlineConnect=0;targetShapes=umlLifeline;portConstraint=eastwest;newEdgeStyle={&quot;edgeStyle&quot;:&quot;elbowEdgeStyle&quot;,&quot;elbow&quot;:&quot;vertical&quot;,&quot;curved&quot;:0,&quot;rounded&quot;:0};" parent="fGEbPbqWwMYZEwWUZNYe-28" vertex="1">
          <mxGeometry x="45" y="800" width="10" height="40" as="geometry" />
        </mxCell>
        <mxCell id="fGEbPbqWwMYZEwWUZNYe-30" value="&lt;font style=&quot;font-size: 9px;&quot;&gt;отправка данных о заказе&lt;/font&gt;" style="html=1;verticalAlign=bottom;endArrow=block;edgeStyle=elbowEdgeStyle;elbow=vertical;curved=0;rounded=0;" parent="1" source="fGEbPbqWwMYZEwWUZNYe-22" target="fGEbPbqWwMYZEwWUZNYe-29" edge="1">
          <mxGeometry x="0.0028" relative="1" as="geometry">
            <mxPoint x="560" y="450" as="sourcePoint" />
            <Array as="points">
              <mxPoint x="640" y="450" />
            </Array>
            <mxPoint x="730" y="450" as="targetPoint" />
            <mxPoint as="offset" />
          </mxGeometry>
        </mxCell>
        <mxCell id="fGEbPbqWwMYZEwWUZNYe-31" value="" style="rounded=0;whiteSpace=wrap;html=1;" parent="1" vertex="1">
          <mxGeometry x="85" y="480" width="10" height="20" as="geometry" />
        </mxCell>
        <mxCell id="fGEbPbqWwMYZEwWUZNYe-32" value="вывод информации о заказе и его статусе" style="html=1;verticalAlign=bottom;endArrow=open;dashed=1;endSize=8;edgeStyle=elbowEdgeStyle;elbow=vertical;curved=0;rounded=0;entryX=1;entryY=0.5;entryDx=0;entryDy=0;" parent="1" edge="1">
          <mxGeometry relative="1" as="geometry">
            <mxPoint x="95" y="490" as="targetPoint" />
            <Array as="points">
              <mxPoint x="605" y="490" />
            </Array>
            <mxPoint x="685" y="490" as="sourcePoint" />
          </mxGeometry>
        </mxCell>
        <mxCell id="fGEbPbqWwMYZEwWUZNYe-33" value="Курьер" style="shape=umlLifeline;perimeter=lifelinePerimeter;whiteSpace=wrap;html=1;container=0;dropTarget=0;collapsible=0;recursiveResize=0;outlineConnect=0;portConstraint=eastwest;newEdgeStyle={&quot;edgeStyle&quot;:&quot;elbowEdgeStyle&quot;,&quot;elbow&quot;:&quot;vertical&quot;,&quot;curved&quot;:0,&quot;rounded&quot;:0};" parent="1" vertex="1">
          <mxGeometry x="770" y="30" width="100" height="870" as="geometry" />
        </mxCell>
        <mxCell id="fGEbPbqWwMYZEwWUZNYe-34" value="" style="html=1;points=[];perimeter=orthogonalPerimeter;outlineConnect=0;targetShapes=umlLifeline;portConstraint=eastwest;newEdgeStyle={&quot;edgeStyle&quot;:&quot;elbowEdgeStyle&quot;,&quot;elbow&quot;:&quot;vertical&quot;,&quot;curved&quot;:0,&quot;rounded&quot;:0};" parent="fGEbPbqWwMYZEwWUZNYe-33" vertex="1">
          <mxGeometry x="45" y="460" width="10" height="50" as="geometry" />
        </mxCell>
        <mxCell id="fGEbPbqWwMYZEwWUZNYe-45" value="" style="html=1;points=[];perimeter=orthogonalPerimeter;outlineConnect=0;targetShapes=umlLifeline;portConstraint=eastwest;newEdgeStyle={&quot;edgeStyle&quot;:&quot;elbowEdgeStyle&quot;,&quot;elbow&quot;:&quot;vertical&quot;,&quot;curved&quot;:0,&quot;rounded&quot;:0};" parent="fGEbPbqWwMYZEwWUZNYe-33" vertex="1">
          <mxGeometry x="45" y="520" width="10" height="20" as="geometry" />
        </mxCell>
        <mxCell id="fGEbPbqWwMYZEwWUZNYe-64" value="" style="html=1;points=[];perimeter=orthogonalPerimeter;outlineConnect=0;targetShapes=umlLifeline;portConstraint=eastwest;newEdgeStyle={&quot;edgeStyle&quot;:&quot;elbowEdgeStyle&quot;,&quot;elbow&quot;:&quot;vertical&quot;,&quot;curved&quot;:0,&quot;rounded&quot;:0};" parent="fGEbPbqWwMYZEwWUZNYe-33" vertex="1">
          <mxGeometry x="45" y="630" width="10" height="50" as="geometry" />
        </mxCell>
        <mxCell id="fGEbPbqWwMYZEwWUZNYe-35" value="" style="shape=umlActor;verticalLabelPosition=bottom;verticalAlign=top;html=1;outlineConnect=0;" parent="1" vertex="1">
          <mxGeometry x="805" y="-50" width="30" height="60" as="geometry" />
        </mxCell>
        <mxCell id="fGEbPbqWwMYZEwWUZNYe-38" value="" style="shape=umlActor;verticalLabelPosition=bottom;verticalAlign=top;html=1;outlineConnect=0;" parent="1" vertex="1">
          <mxGeometry x="75" y="-50" width="30" height="60" as="geometry" />
        </mxCell>
        <mxCell id="fGEbPbqWwMYZEwWUZNYe-39" value="отправка данных" style="html=1;verticalAlign=bottom;endArrow=block;edgeStyle=elbowEdgeStyle;elbow=vertical;curved=0;rounded=0;" parent="1" source="fGEbPbqWwMYZEwWUZNYe-29" target="fGEbPbqWwMYZEwWUZNYe-34" edge="1">
          <mxGeometry x="0.0028" relative="1" as="geometry">
            <mxPoint x="700" y="500" as="sourcePoint" />
            <Array as="points">
              <mxPoint x="780" y="500" />
            </Array>
            <mxPoint x="810" y="500" as="targetPoint" />
            <mxPoint as="offset" />
          </mxGeometry>
        </mxCell>
        <mxCell id="fGEbPbqWwMYZEwWUZNYe-40" value="&lt;font style=&quot;font-size: 9px;&quot;&gt;принятие заказа в работу&lt;/font&gt;" style="html=1;verticalAlign=bottom;endArrow=open;dashed=1;endSize=8;edgeStyle=elbowEdgeStyle;elbow=vertical;curved=0;rounded=0;" parent="1" target="fGEbPbqWwMYZEwWUZNYe-29" edge="1">
          <mxGeometry relative="1" as="geometry">
            <mxPoint x="700" y="530" as="targetPoint" />
            <Array as="points">
              <mxPoint x="735" y="530" />
            </Array>
            <mxPoint x="815" y="530" as="sourcePoint" />
          </mxGeometry>
        </mxCell>
        <mxCell id="fGEbPbqWwMYZEwWUZNYe-41" value="Ресторан" style="shape=umlLifeline;perimeter=lifelinePerimeter;whiteSpace=wrap;html=1;container=0;dropTarget=0;collapsible=0;recursiveResize=0;outlineConnect=0;portConstraint=eastwest;newEdgeStyle={&quot;edgeStyle&quot;:&quot;elbowEdgeStyle&quot;,&quot;elbow&quot;:&quot;vertical&quot;,&quot;curved&quot;:0,&quot;rounded&quot;:0};" parent="1" vertex="1">
          <mxGeometry x="920" y="30" width="100" height="870" as="geometry" />
        </mxCell>
        <mxCell id="fGEbPbqWwMYZEwWUZNYe-42" value="" style="html=1;points=[];perimeter=orthogonalPerimeter;outlineConnect=0;targetShapes=umlLifeline;portConstraint=eastwest;newEdgeStyle={&quot;edgeStyle&quot;:&quot;elbowEdgeStyle&quot;,&quot;elbow&quot;:&quot;vertical&quot;,&quot;curved&quot;:0,&quot;rounded&quot;:0};" parent="fGEbPbqWwMYZEwWUZNYe-41" vertex="1">
          <mxGeometry x="45" y="430" width="10" height="150" as="geometry" />
        </mxCell>
        <mxCell id="fGEbPbqWwMYZEwWUZNYe-43" value="отправка данных о заказе" style="html=1;verticalAlign=bottom;endArrow=block;edgeStyle=elbowEdgeStyle;elbow=vertical;curved=0;rounded=0;" parent="1" source="fGEbPbqWwMYZEwWUZNYe-29" target="fGEbPbqWwMYZEwWUZNYe-42" edge="1">
          <mxGeometry x="0.0028" relative="1" as="geometry">
            <mxPoint x="700" y="480" as="sourcePoint" />
            <Array as="points">
              <mxPoint x="785" y="480" />
            </Array>
            <mxPoint x="820" y="480" as="targetPoint" />
            <mxPoint as="offset" />
          </mxGeometry>
        </mxCell>
        <mxCell id="fGEbPbqWwMYZEwWUZNYe-44" value="&lt;font style=&quot;font-size: 8px;&quot;&gt;выдача готового заказа курьеру&lt;/font&gt;" style="html=1;verticalAlign=bottom;endArrow=block;edgeStyle=elbowEdgeStyle;elbow=vertical;curved=0;rounded=0;" parent="1" edge="1">
          <mxGeometry x="0.0028" relative="1" as="geometry">
            <mxPoint x="965" y="560" as="sourcePoint" />
            <Array as="points">
              <mxPoint x="885" y="560" />
            </Array>
            <mxPoint x="825" y="560" as="targetPoint" />
            <mxPoint as="offset" />
          </mxGeometry>
        </mxCell>
        <mxCell id="fGEbPbqWwMYZEwWUZNYe-50" value="&lt;font style=&quot;font-size: 5px;&quot;&gt;отправка информации о том, что заказ в пути&lt;/font&gt;" style="html=1;verticalAlign=bottom;endArrow=block;edgeStyle=elbowEdgeStyle;elbow=vertical;curved=0;rounded=0;" parent="1" edge="1">
          <mxGeometry x="0.0028" relative="1" as="geometry">
            <mxPoint x="815" y="560" as="sourcePoint" />
            <Array as="points">
              <mxPoint x="725" y="560" />
            </Array>
            <mxPoint x="695" y="560" as="targetPoint" />
            <mxPoint as="offset" />
          </mxGeometry>
        </mxCell>
        <mxCell id="fGEbPbqWwMYZEwWUZNYe-51" value="&lt;font style=&quot;font-size: 6px;&quot;&gt;отправка информации о том, что заказ передан курьеру&lt;/font&gt;" style="html=1;verticalAlign=bottom;endArrow=block;edgeStyle=elbowEdgeStyle;elbow=vertical;curved=0;rounded=0;" parent="1" edge="1">
          <mxGeometry x="0.0028" relative="1" as="geometry">
            <mxPoint x="965" y="590" as="sourcePoint" />
            <Array as="points">
              <mxPoint x="755" y="590" />
            </Array>
            <mxPoint x="695" y="590" as="targetPoint" />
            <mxPoint as="offset" />
          </mxGeometry>
        </mxCell>
        <mxCell id="fGEbPbqWwMYZEwWUZNYe-53" value="" style="rounded=0;whiteSpace=wrap;html=1;" parent="1" vertex="1">
          <mxGeometry x="85" y="600" width="10" height="20" as="geometry" />
        </mxCell>
        <mxCell id="fGEbPbqWwMYZEwWUZNYe-54" value="&lt;font style=&quot;font-size: 11px;&quot;&gt;обновление статуса заказа&lt;/font&gt;" style="html=1;verticalAlign=bottom;endArrow=block;edgeStyle=elbowEdgeStyle;elbow=vertical;curved=0;rounded=0;" parent="1" edge="1">
          <mxGeometry x="0.0028" relative="1" as="geometry">
            <mxPoint x="685" y="610" as="sourcePoint" />
            <Array as="points">
              <mxPoint x="475" y="610" />
            </Array>
            <mxPoint x="95" y="610" as="targetPoint" />
            <mxPoint as="offset" />
          </mxGeometry>
        </mxCell>
        <mxCell id="fGEbPbqWwMYZEwWUZNYe-56" value="" style="shape=umlActor;verticalLabelPosition=bottom;verticalAlign=top;html=1;outlineConnect=0;" parent="1" vertex="1">
          <mxGeometry x="955" y="-50" width="30" height="60" as="geometry" />
        </mxCell>
        <mxCell id="fGEbPbqWwMYZEwWUZNYe-57" value="Банк" style="shape=umlLifeline;perimeter=lifelinePerimeter;whiteSpace=wrap;html=1;container=0;dropTarget=0;collapsible=0;recursiveResize=0;outlineConnect=0;portConstraint=eastwest;newEdgeStyle={&quot;edgeStyle&quot;:&quot;elbowEdgeStyle&quot;,&quot;elbow&quot;:&quot;vertical&quot;,&quot;curved&quot;:0,&quot;rounded&quot;:0};" parent="1" vertex="1">
          <mxGeometry x="1050" y="30" width="100" height="870" as="geometry" />
        </mxCell>
        <mxCell id="fGEbPbqWwMYZEwWUZNYe-58" value="" style="html=1;points=[];perimeter=orthogonalPerimeter;outlineConnect=0;targetShapes=umlLifeline;portConstraint=eastwest;newEdgeStyle={&quot;edgeStyle&quot;:&quot;elbowEdgeStyle&quot;,&quot;elbow&quot;:&quot;vertical&quot;,&quot;curved&quot;:0,&quot;rounded&quot;:0};" parent="fGEbPbqWwMYZEwWUZNYe-57" vertex="1">
          <mxGeometry x="45" y="710" width="10" height="130" as="geometry" />
        </mxCell>
        <mxCell id="fGEbPbqWwMYZEwWUZNYe-59" value="" style="shape=umlActor;verticalLabelPosition=bottom;verticalAlign=top;html=1;outlineConnect=0;" parent="1" vertex="1">
          <mxGeometry x="1085" y="-50" width="30" height="60" as="geometry" />
        </mxCell>
        <mxCell id="fGEbPbqWwMYZEwWUZNYe-60" value="" style="rounded=0;whiteSpace=wrap;html=1;" parent="1" vertex="1">
          <mxGeometry x="265" y="440" width="10" height="20" as="geometry" />
        </mxCell>
        <mxCell id="fGEbPbqWwMYZEwWUZNYe-62" value="&lt;font style=&quot;font-size: 9px;&quot;&gt;отправка данных о способе оплаты и реквизитах&lt;/font&gt;" style="html=1;verticalAlign=bottom;endArrow=block;edgeStyle=elbowEdgeStyle;elbow=vertical;curved=0;rounded=0;entryX=1;entryY=0.5;entryDx=0;entryDy=0;" parent="1" source="fGEbPbqWwMYZEwWUZNYe-22" target="fGEbPbqWwMYZEwWUZNYe-60" edge="1">
          <mxGeometry x="0.0028" relative="1" as="geometry">
            <mxPoint x="550" y="449.9" as="sourcePoint" />
            <Array as="points">
              <mxPoint x="465" y="449.9" />
            </Array>
            <mxPoint x="420" y="449.9" as="targetPoint" />
            <mxPoint as="offset" />
          </mxGeometry>
        </mxCell>
        <mxCell id="fGEbPbqWwMYZEwWUZNYe-65" value="передача заказа клиенту" style="html=1;verticalAlign=bottom;endArrow=block;edgeStyle=elbowEdgeStyle;elbow=vertical;curved=0;rounded=0;entryX=0.988;entryY=0.089;entryDx=0;entryDy=0;entryPerimeter=0;" parent="1" source="fGEbPbqWwMYZEwWUZNYe-64" target="fGEbPbqWwMYZEwWUZNYe-66" edge="1">
          <mxGeometry x="0.0028" relative="1" as="geometry">
            <mxPoint x="810" y="680" as="sourcePoint" />
            <Array as="points">
              <mxPoint x="720" y="680" />
            </Array>
            <mxPoint x="210" y="680" as="targetPoint" />
            <mxPoint as="offset" />
          </mxGeometry>
        </mxCell>
        <mxCell id="fGEbPbqWwMYZEwWUZNYe-66" value="" style="rounded=0;whiteSpace=wrap;html=1;" parent="1" vertex="1">
          <mxGeometry x="85" y="670" width="10" height="200" as="geometry" />
        </mxCell>
        <mxCell id="fGEbPbqWwMYZEwWUZNYe-68" value="&lt;font style=&quot;font-size: 6px;&quot;&gt;отправка информации о передаче заказа&lt;/font&gt;" style="html=1;verticalAlign=bottom;endArrow=block;edgeStyle=elbowEdgeStyle;elbow=vertical;curved=0;rounded=0;" parent="1" source="fGEbPbqWwMYZEwWUZNYe-64" target="fGEbPbqWwMYZEwWUZNYe-67" edge="1">
          <mxGeometry x="0.0028" relative="1" as="geometry">
            <mxPoint x="805" y="700" as="sourcePoint" />
            <Array as="points">
              <mxPoint x="760" y="700" />
            </Array>
            <mxPoint x="535" y="700" as="targetPoint" />
            <mxPoint as="offset" />
          </mxGeometry>
        </mxCell>
        <mxCell id="fGEbPbqWwMYZEwWUZNYe-69" value="" style="rounded=0;whiteSpace=wrap;html=1;" parent="1" vertex="1">
          <mxGeometry x="265" y="700" width="10" height="40" as="geometry" />
        </mxCell>
        <mxCell id="fGEbPbqWwMYZEwWUZNYe-70" value="&lt;font style=&quot;font-size: 8px;&quot;&gt;запрос реквизитов для оплаты&lt;/font&gt;" style="html=1;verticalAlign=bottom;endArrow=block;edgeStyle=elbowEdgeStyle;elbow=vertical;curved=0;rounded=0;" parent="1" source="fGEbPbqWwMYZEwWUZNYe-67" edge="1">
          <mxGeometry x="0.0028" relative="1" as="geometry">
            <mxPoint x="680" y="709.89" as="sourcePoint" />
            <Array as="points">
              <mxPoint x="625" y="709.89" />
            </Array>
            <mxPoint x="275" y="710" as="targetPoint" />
            <mxPoint as="offset" />
          </mxGeometry>
        </mxCell>
        <mxCell id="fGEbPbqWwMYZEwWUZNYe-71" value="&lt;font style=&quot;font-size: 9px;&quot;&gt;возврат реквизитов для оплаты&lt;/font&gt;" style="html=1;verticalAlign=bottom;endArrow=open;dashed=1;endSize=8;edgeStyle=elbowEdgeStyle;elbow=vertical;curved=0;rounded=0;" parent="1" target="fGEbPbqWwMYZEwWUZNYe-67" edge="1">
          <mxGeometry relative="1" as="geometry">
            <mxPoint x="680" y="730" as="targetPoint" />
            <Array as="points">
              <mxPoint x="355" y="729.8" />
            </Array>
            <mxPoint x="275" y="729.8" as="sourcePoint" />
          </mxGeometry>
        </mxCell>
        <mxCell id="fGEbPbqWwMYZEwWUZNYe-73" value="запрос на оплату" style="html=1;verticalAlign=bottom;endArrow=block;edgeStyle=elbowEdgeStyle;elbow=vertical;curved=0;rounded=0;" parent="1" source="fGEbPbqWwMYZEwWUZNYe-67" target="fGEbPbqWwMYZEwWUZNYe-58" edge="1">
          <mxGeometry x="0.0028" relative="1" as="geometry">
            <mxPoint x="700" y="750" as="sourcePoint" />
            <Array as="points">
              <mxPoint x="790" y="750" />
            </Array>
            <mxPoint x="970" y="750" as="targetPoint" />
            <mxPoint as="offset" />
          </mxGeometry>
        </mxCell>
        <mxCell id="fGEbPbqWwMYZEwWUZNYe-74" value="запрос подтверждения оплаты" style="html=1;verticalAlign=bottom;endArrow=block;edgeStyle=elbowEdgeStyle;elbow=vertical;curved=0;rounded=0;" parent="1" source="fGEbPbqWwMYZEwWUZNYe-58" edge="1">
          <mxGeometry x="0.0028" relative="1" as="geometry">
            <mxPoint x="1100" y="780" as="sourcePoint" />
            <Array as="points">
              <mxPoint x="1005" y="780" />
            </Array>
            <mxPoint x="96" y="780" as="targetPoint" />
            <mxPoint as="offset" />
          </mxGeometry>
        </mxCell>
        <mxCell id="fGEbPbqWwMYZEwWUZNYe-75" value="&lt;font style=&quot;font-size: 9px;&quot;&gt;подтверждение оплаты&lt;/font&gt;" style="html=1;verticalAlign=bottom;endArrow=open;dashed=1;endSize=8;edgeStyle=elbowEdgeStyle;elbow=vertical;curved=0;rounded=0;" parent="1" target="fGEbPbqWwMYZEwWUZNYe-58" edge="1">
          <mxGeometry relative="1" as="geometry">
            <mxPoint x="505" y="810.2" as="targetPoint" />
            <Array as="points">
              <mxPoint x="175" y="810" />
            </Array>
            <mxPoint x="95" y="810" as="sourcePoint" />
          </mxGeometry>
        </mxCell>
        <mxCell id="fGEbPbqWwMYZEwWUZNYe-77" value="&lt;font style=&quot;font-size: 8px;&quot;&gt;отправка информации о подтверждении оплаты&lt;/font&gt;" style="html=1;verticalAlign=bottom;endArrow=block;edgeStyle=elbowEdgeStyle;elbow=vertical;curved=0;rounded=0;" parent="1" source="fGEbPbqWwMYZEwWUZNYe-58" target="fGEbPbqWwMYZEwWUZNYe-76" edge="1">
          <mxGeometry x="0.0028" relative="1" as="geometry">
            <mxPoint x="1090" y="840" as="sourcePoint" />
            <Array as="points">
              <mxPoint x="1035" y="840" />
            </Array>
            <mxPoint x="970" y="840" as="targetPoint" />
            <mxPoint as="offset" />
          </mxGeometry>
        </mxCell>
        <mxCell id="fGEbPbqWwMYZEwWUZNYe-78" value="&lt;font style=&quot;font-size: 9px;&quot;&gt;обновление статуса и завершение заказа&lt;/font&gt;" style="html=1;verticalAlign=bottom;endArrow=block;edgeStyle=elbowEdgeStyle;elbow=vertical;curved=0;rounded=0;entryX=0.977;entryY=0.948;entryDx=0;entryDy=0;entryPerimeter=0;" parent="1" source="fGEbPbqWwMYZEwWUZNYe-76" target="fGEbPbqWwMYZEwWUZNYe-66" edge="1">
          <mxGeometry x="0.0028" relative="1" as="geometry">
            <mxPoint x="670" y="860" as="sourcePoint" />
            <Array as="points">
              <mxPoint x="630" y="860" />
            </Array>
            <mxPoint x="100" y="860" as="targetPoint" />
            <mxPoint as="offset" />
          </mxGeometry>
        </mxCell>
        <mxCell id="SMAo7rlY8rVSAwSH-DiO-1" value="" style="ellipse;whiteSpace=wrap;html=1;aspect=fixed;" vertex="1" parent="1">
          <mxGeometry x="70" y="900" width="40" height="40" as="geometry" />
        </mxCell>
        <mxCell id="SMAo7rlY8rVSAwSH-DiO-2" value="" style="endArrow=none;html=1;rounded=0;entryX=1;entryY=0;entryDx=0;entryDy=0;exitX=0;exitY=1;exitDx=0;exitDy=0;" edge="1" parent="1" source="SMAo7rlY8rVSAwSH-DiO-1" target="SMAo7rlY8rVSAwSH-DiO-1">
          <mxGeometry width="50" height="50" relative="1" as="geometry">
            <mxPoint x="120" y="950" as="sourcePoint" />
            <mxPoint x="170" y="900" as="targetPoint" />
          </mxGeometry>
        </mxCell>
        <mxCell id="SMAo7rlY8rVSAwSH-DiO-3" value="" style="endArrow=none;html=1;rounded=0;entryX=0;entryY=0;entryDx=0;entryDy=0;exitX=1;exitY=1;exitDx=0;exitDy=0;" edge="1" parent="1" source="SMAo7rlY8rVSAwSH-DiO-1" target="SMAo7rlY8rVSAwSH-DiO-1">
          <mxGeometry width="50" height="50" relative="1" as="geometry">
            <mxPoint x="120" y="950" as="sourcePoint" />
            <mxPoint x="170" y="900" as="targetPoint" />
          </mxGeometry>
        </mxCell>
      </root>
    </mxGraphModel>
  </diagram>
</mxfile>
